<svg width="142" height="44" viewBox="0 0 142 44" fill="none" xmlns="http://www.w3.org/2000/svg">
<path d="M120.432 23.9758L108.141 10.3383C107.993 10.174 107.811 10.0437 107.607 9.95652C107.404 9.86933 107.184 9.82725 106.963 9.83319H98.7128C98.5862 9.83373 98.4624 9.87036 98.3559 9.93879C98.2495 10.0072 98.1648 10.1046 98.1117 10.2195C98.0587 10.3344 98.0395 10.4621 98.0565 10.5875C98.0735 10.7129 98.126 10.8309 98.2077 10.9276L109.993 23.9758L93.746 42.0917C93.6643 42.1884 93.6119 42.3063 93.5949 42.4317C93.5779 42.5572 93.597 42.6848 93.6501 42.7997C93.7031 42.9147 93.7878 43.012 93.8943 43.0805C94.0008 43.1489 94.1246 43.1855 94.2511 43.1861H102.669C103.113 43.1798 103.537 42.9982 103.848 42.681L120.432 23.9926V23.9758Z" fill="#2B38D1"/>
<path d="M141.166 0.59846C141.112 0.419508 141 0.263634 140.847 0.155415C140.695 0.0471949 140.511 -0.0072135 140.324 0.000768074H131.99C131.741 0.00337252 131.496 0.0553151 131.267 0.153582C131.039 0.251848 130.833 0.394482 130.66 0.573205L117.443 15.3976L122.949 21.5177L140.88 1.38135C141.006 1.29989 141.102 1.17931 141.154 1.03799C141.206 0.896658 141.21 0.742316 141.166 0.59846Z" fill="#2B38D1"/>
<path d="M123.058 26.375L117.561 32.5792L119.245 34.507L122.831 38.6403C123.003 38.8169 123.209 38.9576 123.435 39.0544C123.662 39.1512 123.906 39.2022 124.153 39.2043H132.571C132.734 39.2087 132.894 39.1657 133.033 39.0806C133.172 38.9954 133.284 38.8717 133.354 38.7245C133.424 38.5677 133.45 38.3947 133.43 38.224C133.409 38.0534 133.342 37.8917 133.236 37.7564L123.058 26.375Z" fill="#2B38D1"/>
<path d="M78.2145 13.874V34.5827C78.1872 34.774 78.0986 34.9513 77.962 35.0879C77.8254 35.2245 77.6481 35.3131 77.4568 35.3404H72.9952C72.7642 35.3146 72.5377 35.258 72.3217 35.172C72.2136 35.1393 72.1132 35.0852 72.0264 35.0129C71.9396 34.9406 71.8683 34.8516 71.8166 34.7511L63.9035 23.6391C63.8194 23.4707 63.651 23.3865 63.5668 23.4707C63.4826 23.5549 63.3984 23.6391 63.3984 23.8074V34.5827C63.3712 34.774 63.2826 34.9513 63.146 35.0879C63.0094 35.2245 62.8321 35.3131 62.6408 35.3404H58.095C57.9037 35.3131 57.7264 35.2245 57.5898 35.0879C57.4532 34.9513 57.3646 34.774 57.3373 34.5827V13.874C57.3646 13.6827 57.4532 13.5054 57.5898 13.3688C57.7264 13.2322 57.9037 13.1436 58.095 13.1163H62.6408C62.8718 13.1421 63.0983 13.1987 63.3143 13.2847C63.4224 13.3174 63.5228 13.3715 63.6096 13.4438C63.6964 13.5161 63.7677 13.6052 63.8194 13.7056L71.7325 24.8176C71.7719 24.8949 71.8323 24.9596 71.9067 25.0043C71.9811 25.0489 72.0666 25.0718 72.1534 25.0702C72.3217 25.0702 72.3217 24.9018 72.3217 24.7334V13.874C72.349 13.6827 72.4376 13.5054 72.5742 13.3688C72.7108 13.2322 72.8881 13.1436 73.0794 13.1163H77.541C77.6378 13.1224 77.7324 13.1479 77.8192 13.1913C77.906 13.2347 77.9831 13.2951 78.0461 13.3689C78.2145 13.5372 78.2145 13.6214 78.2145 13.874Z" fill="#2B38D1"/>
<path d="M86.7169 19.3626V20.6085C86.723 20.7053 86.7485 20.7999 86.7918 20.8867C86.8352 20.9735 86.8956 21.0506 86.9694 21.1136C87.0328 21.1862 87.1102 21.2453 87.197 21.2872C87.2838 21.3292 87.3782 21.3532 87.4745 21.3577H95.7243C95.9144 21.3845 96.0907 21.4719 96.2272 21.6069C96.3637 21.7418 96.453 21.9172 96.482 22.107V26.2656C96.4757 26.3611 96.4501 26.4544 96.4067 26.5398C96.3633 26.6252 96.3029 26.7009 96.2294 26.7622C96.1664 26.836 96.0893 26.8964 96.0025 26.9398C95.9157 26.9832 95.8211 27.0087 95.7243 27.0148H87.4745C87.2809 27.0277 87.0998 27.1152 86.9694 27.2589C86.8956 27.3219 86.8352 27.399 86.7918 27.4858C86.7485 27.5726 86.723 27.6672 86.7169 27.764V28.9257C86.723 29.0225 86.7485 29.1171 86.7918 29.2039C86.8352 29.2907 86.8956 29.3678 86.9694 29.4308C87.0998 29.5745 87.2809 29.662 87.4745 29.6749H96.9029C96.9997 29.681 97.0943 29.7065 97.181 29.7499C97.2678 29.7933 97.345 29.8537 97.408 29.9275C97.4815 29.9888 97.5418 30.0645 97.5852 30.1499C97.6286 30.2353 97.6542 30.3286 97.6605 30.4241V34.6332C97.6316 34.823 97.5423 34.9984 97.4058 35.1333C97.2693 35.2683 97.0929 35.3557 96.9029 35.3825H81.4976C81.3075 35.3557 81.1311 35.2683 80.9946 35.1333C80.8582 34.9984 80.7688 34.823 80.7399 34.6332V13.8656C80.746 13.7687 80.7715 13.6741 80.8149 13.5874C80.8583 13.5006 80.9187 13.4234 80.9925 13.3605C81.0559 13.2878 81.1333 13.2288 81.2201 13.1868C81.3069 13.1449 81.4013 13.1209 81.4976 13.1163H96.9029C96.9992 13.1209 97.0935 13.1449 97.1803 13.1868C97.2671 13.2288 97.3446 13.2878 97.408 13.3605C97.4817 13.4234 97.5421 13.5006 97.5855 13.5874C97.6289 13.6741 97.6544 13.7687 97.6605 13.8656V17.94C97.6547 18.0356 97.6293 18.1291 97.5859 18.2146C97.5424 18.3 97.4819 18.3756 97.408 18.4366C97.345 18.5104 97.2678 18.5708 97.181 18.6142C97.0943 18.6576 96.9997 18.6831 96.9029 18.6892H87.4745C87.3777 18.6953 87.2831 18.7208 87.1963 18.7642C87.1095 18.8076 87.0324 18.8679 86.9694 18.9417C86.801 19.1017 86.7169 19.1017 86.7169 19.3626Z" fill="#2B38D1"/>
<path d="M54.8119 13.8319C54.8154 13.737 54.7993 13.6423 54.7646 13.5539C54.7299 13.4655 54.6773 13.3852 54.6101 13.318C54.543 13.2509 54.4627 13.1983 54.3743 13.1636C54.2859 13.1289 54.1912 13.1128 54.0963 13.1163H49.5926C49.4983 13.114 49.4046 13.1309 49.3172 13.1662C49.2298 13.2014 49.1505 13.2541 49.0843 13.3212C49.018 13.3882 48.9662 13.4681 48.932 13.556C48.8978 13.6438 48.882 13.7377 48.8854 13.8319V24.4641V34.6164C48.8809 34.7121 48.8958 34.8076 48.9293 34.8974C48.9628 34.9871 49.0141 35.0691 49.0803 35.1383C49.1464 35.2076 49.2259 35.2627 49.314 35.3003C49.402 35.338 49.4968 35.3573 49.5926 35.3572H54.0879C54.1831 35.3576 54.2775 35.3392 54.3656 35.3031C54.4537 35.267 54.5338 35.2139 54.6014 35.1467C54.6674 35.0788 54.7192 34.9984 54.7539 34.9102C54.7886 34.8221 54.8054 34.7279 54.8034 34.6332V24.4641L54.8119 13.8319Z" fill="#212529"/>
<path d="M46.3684 13.874V34.5827C46.3412 34.774 46.2526 34.9513 46.1159 35.0879C45.9793 35.2245 45.802 35.3131 45.6108 35.3404H41.0649C40.8736 35.3131 40.6964 35.2245 40.5597 35.0879C40.4231 34.9513 40.3345 34.774 40.3073 34.5827V24.8176C40.3073 24.6493 40.2231 24.4809 40.0547 24.4809C39.968 24.4793 39.8825 24.5021 39.8081 24.5468C39.7336 24.5915 39.6733 24.6561 39.6338 24.7334L34.4987 32.9833C34.4399 33.0617 34.3637 33.1253 34.276 33.1692C34.1883 33.213 34.0917 33.2358 33.9936 33.2358C33.8956 33.2358 33.799 33.213 33.7113 33.1692C33.6236 33.1253 33.5474 33.0617 33.4886 32.9833L28.3535 24.7334C28.314 24.6561 28.2536 24.5915 28.1792 24.5468C28.1048 24.5021 28.0193 24.4793 27.9325 24.4809C27.7642 24.4809 27.68 24.6493 27.68 24.8176V34.5827C27.6528 34.774 27.5642 34.9513 27.4275 35.0879C27.2909 35.2245 27.1136 35.3131 26.9224 35.3404H22.3765C22.1852 35.3131 22.008 35.2245 21.8713 35.0879C21.7347 34.9513 21.6461 34.774 21.6189 34.5827V13.874C21.6461 13.6827 21.7347 13.5054 21.8713 13.3688C22.008 13.2322 22.1852 13.1436 22.3765 13.1163H26.5856C26.8166 13.1421 27.0431 13.1987 27.2591 13.2847C27.3672 13.3174 27.4676 13.3715 27.5544 13.4438C27.6412 13.5161 27.7125 13.6052 27.7642 13.7056L33.6569 22.2922C33.6982 22.3677 33.7591 22.4307 33.8332 22.4746C33.9072 22.5185 33.9917 22.5416 34.0778 22.5416C34.1639 22.5416 34.2484 22.5185 34.3225 22.4746C34.3965 22.4307 34.4574 22.3677 34.4987 22.2922L40.3325 13.7056C40.3842 13.6052 40.4555 13.5161 40.5423 13.4438C40.6291 13.3715 40.7295 13.3174 40.8376 13.2847C41.0504 13.1893 41.2784 13.1323 41.5111 13.1163H45.7202C45.817 13.1224 45.9116 13.1479 45.9984 13.1913C46.0851 13.2347 46.1623 13.2951 46.2253 13.3689C46.3353 13.513 46.3864 13.6936 46.3684 13.874Z" fill="#212529"/>
<path d="M0.00100161 13.8318C-0.00135936 13.7363 0.0161259 13.6414 0.0523517 13.553C0.0885775 13.4646 0.142755 13.3847 0.211456 13.3183C0.277275 13.2518 0.356086 13.1995 0.442982 13.1647C0.529879 13.13 0.623 13.1135 0.716549 13.1163H5.21186C5.30541 13.1135 5.39853 13.13 5.48543 13.1647C5.57233 13.1995 5.65114 13.2518 5.71696 13.3183C5.78566 13.3847 5.83983 13.4646 5.87606 13.553C5.91229 13.6414 5.92977 13.7363 5.92741 13.8318V25.9456C5.9048 26.6078 6.03139 27.2667 6.29781 27.8734C6.51546 28.3394 6.83475 28.7507 7.23223 29.0772C7.58652 29.3536 7.98897 29.5619 8.4192 29.6917C9.16141 29.9272 9.95832 29.9272 10.7005 29.6917C11.1273 29.5662 11.525 29.3573 11.8707 29.0772C12.2604 28.7474 12.5736 28.3366 12.7882 27.8734C13.0618 27.2687 13.1915 26.6088 13.1671 25.9456V13.8318C13.1647 13.7363 13.1822 13.6414 13.2184 13.553C13.2546 13.4646 13.3088 13.3847 13.3775 13.3183C13.4433 13.2518 13.5221 13.1995 13.609 13.1647C13.6959 13.13 13.7891 13.1135 13.8826 13.1163H18.3779C18.5663 13.1145 18.7478 13.1871 18.883 13.3183C18.9501 13.3859 19.0033 13.466 19.0394 13.5541C19.0755 13.6422 19.0939 13.7366 19.0935 13.8318V25.9456C19.109 27.2641 18.8807 28.5741 18.42 29.8096C17.9958 30.9233 17.3385 31.9336 16.4922 32.7728C15.6266 33.6061 14.5975 34.2511 13.4701 34.6669C12.2213 35.1323 10.8966 35.3607 9.56407 35.3403C8.22872 35.3613 6.90117 35.1329 5.64961 34.6669C4.52219 34.2511 3.49317 33.6061 2.62748 32.7728C1.78135 31.9318 1.12166 30.9222 0.691293 29.8096C0.216944 28.5774 -0.0173622 27.2658 0.00100161 25.9456V13.8318Z" fill="#212529"/>
</svg>
